<svg width="252" height="65" viewBox="0 0 252 65" fill="none" xmlns="http://www.w3.org/2000/svg">
<path d="M4.55024 0.650673C-1.75909 3.52476 -1.43086 12.6141 5.06082 14.8774C8.05137 15.8833 10.5678 15.3444 12.9748 13.1889C16.9865 9.52441 16.0748 3.09365 11.1878 0.866229C8.89018 -0.211554 6.59257 -0.283405 4.55024 0.650673Z" fill="white"/>
<path d="M18.2995 1.1181C18.0077 1.40551 17.8618 3.38144 17.8618 7.69257C17.8618 12.0037 18.0077 13.9796 18.2995 14.267C18.9194 14.8778 30.6628 14.8778 31.2828 14.267C31.9028 13.6563 31.9028 1.72884 31.2828 1.1181C30.6628 0.507356 18.9194 0.507356 18.2995 1.1181Z" fill="white"/>
<path d="M35.0757 1.1177C34.5287 1.65659 34.4557 12.9733 35.0028 14.0152C35.3675 14.6618 35.8416 14.6978 41.5674 14.6978C46.6732 14.6978 47.8038 14.59 48.2779 14.1229C48.752 13.6559 48.8614 12.5781 48.8614 7.83588C48.8614 4.53068 48.7155 1.76437 48.4967 1.36918C48.132 0.722514 47.6579 0.686588 41.8227 0.686588C37.4098 0.686588 35.3675 0.830293 35.0757 1.1177Z" fill="white"/>
<path d="M0.939703 18.1465C0.502062 19.2603 0.684412 30.3255 1.15852 30.7925C1.45028 31.0799 3.49261 31.2236 7.9055 31.2236C13.7407 31.2236 14.2148 31.1877 14.5795 30.541C15.1266 29.4992 15.0536 18.5417 14.5066 18.0028C14.2148 17.7154 12.136 17.5717 7.61373 17.5717C2.07028 17.5717 1.12205 17.6436 0.939703 18.1465Z" fill="white"/>
<path d="M18.0442 18.0387C17.9348 18.2902 17.8983 21.308 17.9348 24.7569L18.0442 31.0439H24.7911H31.5381V24.3976V17.7513L24.8641 17.6435C19.6489 17.5717 18.1536 17.6435 18.0442 18.0387Z" fill="white"/>
<path d="M83.7269 33.3789C81.8304 33.9537 80.9551 35.1034 80.9551 36.9356C80.9916 39.0193 81.6116 39.8097 84.4198 41.3545C86.3162 42.4323 86.608 42.7197 86.608 43.6178C86.608 44.6597 86.5351 44.6956 84.8939 44.8034C83.9821 44.8752 82.6328 44.6597 81.9033 44.3723L80.5904 43.8334V45.2345C80.5904 46.5638 80.6634 46.6715 81.9763 46.9949C86.1704 48.1445 89.708 46.5638 89.708 43.5101C89.708 41.4263 88.9056 40.4563 86.2433 39.163C84.4198 38.3008 83.4351 37.2589 83.7269 36.4685C84.128 35.4626 86.2068 35.283 88.2856 36.0734C88.7233 36.253 89.015 36.0015 89.2703 35.1752C89.635 34.1693 89.5985 34.0256 88.8327 33.7382C87.4468 33.2352 84.8574 33.0196 83.7269 33.3789Z" fill="white"/>
<path d="M152.108 33.4151C151.452 33.6306 150.504 34.0258 150.03 34.3132C147.732 35.8221 146.93 41.0314 148.534 44.157C150.54 48.1088 157.105 48.504 159.767 44.8396C160.533 43.7618 160.642 43.2229 160.642 40.2051C160.642 37.2232 160.533 36.6484 159.804 35.6066C159.329 34.9599 158.491 34.2054 157.944 33.918C156.558 33.2354 153.604 32.984 152.108 33.4151ZM156.12 35.894C157.178 36.4688 157.907 38.1932 157.907 40.2051C157.907 43.3666 156.667 44.8755 154.078 44.8755C151.598 44.8755 150.248 42.4325 150.759 38.9836C151.197 36.1814 153.786 34.6725 156.12 35.894Z" fill="white"/>
<path d="M59.0731 40.2048V47.0308H60.3495H61.626V40.2048V33.3789H60.3495H59.0731V40.2048Z" fill="white"/>
<path d="M65.273 40.2048V47.0308H66.5494H67.7894L67.8988 41.8933L68.0082 36.7918L70.9258 41.8933L73.8435 47.0308H75.7764H77.6728V40.2048V33.3789H76.3964H75.1564L75.047 38.4085L74.9376 43.4022L72.02 38.4085L69.1388 33.3789H67.2059H65.273V40.2048Z" fill="white"/>
<path d="M90.8021 34.4566C90.8021 35.5344 90.8385 35.5344 92.8079 35.5344H94.8138V41.2826V47.0308H96.2726H97.7314V41.2826V35.5344H99.5549C101.342 35.5344 101.378 35.4985 101.378 34.4566V33.3789H96.0902H90.8021V34.4566Z" fill="white"/>
<path d="M103.931 40.2048V47.0308H105.39H106.849V40.2048V33.3789H105.39H103.931V40.2048Z" fill="white"/>
<path d="M109.037 34.4207C109.037 35.4626 109.11 35.4985 110.97 35.6063L112.866 35.7141L112.976 41.3544L113.085 47.0308H114.325H115.565L115.675 41.3544L115.784 35.7141L117.717 35.6063C119.541 35.4985 119.613 35.4626 119.613 34.4207V33.3789H114.325H109.037V34.4207Z" fill="white"/>
<path d="M121.802 38.5882C121.802 44.3004 122.057 45.3423 123.808 46.456C126.324 48.0727 131.029 47.3182 132.415 45.0908C132.998 44.1208 133.107 43.2586 133.107 38.66V33.3789H131.649H130.19V38.3367C130.19 44.2645 129.935 44.8753 127.455 44.8753C124.975 44.8753 124.719 44.2645 124.719 38.3367V33.3789H123.261H121.802V38.5882Z" fill="white"/>
<path d="M135.296 34.4207C135.296 35.4626 135.369 35.4985 137.229 35.6063L139.125 35.7141L139.234 41.3544L139.344 47.0308H140.766H142.225V41.2826V35.5344H144.048C145.835 35.5344 145.872 35.4985 145.872 34.4566V33.3789H140.584H135.296V34.4207Z" fill="white"/>
<path d="M169.213 40.2048V47.0308H170.672H172.13V44.3363V41.6419H174.501H176.871V40.5641V39.4863H174.501H172.13V37.5104V35.5344H174.683H177.236V34.4566V33.3789H173.224H169.213V40.2048Z" fill="white"/>
<path d="M179.789 40.2048V47.0308H183.983H188.177V45.953V44.9111L185.551 44.8033L182.889 44.6956L182.78 43.007L182.67 41.3185L185.15 41.2107L187.63 41.103L187.74 39.9174L187.849 38.7678H185.26H182.67L182.78 37.2229L182.889 35.7141L185.551 35.6063L188.177 35.4985V34.4566V33.3789H183.983H179.789V40.2048Z" fill="white"/>
<path d="M191.095 40.2048V47.0308H194.304C196.894 47.0308 197.805 46.8871 199.118 46.2045C201.015 45.2704 202.255 43.6537 202.583 41.6419C203.13 38.3726 201.817 35.5344 199.118 34.1692C197.805 33.5226 196.894 33.3789 194.304 33.3789H191.095V40.2048ZM198.498 36.9715C199.337 37.9055 199.483 38.3726 199.483 40.2048C199.483 42.037 199.337 42.5041 198.462 43.4741C197.696 44.3363 197.076 44.6237 195.727 44.7674L194.012 44.983V40.2048V35.4266L195.763 35.6781C197.039 35.8218 197.732 36.1811 198.498 36.9715Z" fill="white"/>
<path d="M205.683 40.2048V47.0308H209.695H213.706V45.953V44.8752H211.153H208.601V43.0789V41.2826H210.971H213.342V40.0252V38.7678H210.971H208.601V37.1511V35.5344H211.153H213.706V34.4566V33.3789H209.695H205.683V40.2048Z" fill="white"/>
<path d="M216.624 40.2048V47.0308H218.083H219.542V44.48V41.9652L220.526 42.073C221.292 42.1448 221.803 42.7196 222.97 44.5878C224.429 46.9589 224.502 46.9948 226.033 47.0308C226.909 47.0308 227.565 46.923 227.492 46.7434C227.456 46.5996 226.58 45.3422 225.596 43.9052L223.845 41.3185L224.939 40.3844C226.361 39.1989 226.726 37.5463 225.96 35.75C225.194 33.9537 223.699 33.3789 219.724 33.3789H216.624V40.2048ZM221.985 35.9296C223.699 36.5763 223.991 37.6181 222.824 38.7678C222.386 39.1989 221.62 39.4863 220.818 39.4863H219.542V37.7618C219.542 35.3907 219.906 35.1392 221.985 35.9296Z" fill="white"/>
<path d="M232.853 33.8099C231.248 38.121 228.294 46.4918 228.294 46.7432C228.294 46.9229 228.987 47.0306 229.826 46.9588C231.248 46.851 231.358 46.7792 231.723 45.414L232.16 43.9769H234.859H237.558L237.995 45.414C238.36 46.7792 238.47 46.851 239.892 46.9588C240.731 47.0306 241.424 46.9588 241.424 46.7792C241.424 46.6355 240.366 43.5817 239.09 40.0251L236.755 33.5584L234.895 33.4506C233.619 33.3787 232.963 33.4865 232.853 33.8099ZM235.698 37.9414C236.026 39.091 236.391 40.3125 236.5 40.6358C236.719 41.2106 236.537 41.2825 234.859 41.2825C233.181 41.2825 232.999 41.2106 233.218 40.6358C233.327 40.3125 233.692 39.091 234.02 37.9414C234.348 36.8276 234.713 35.8936 234.859 35.8936C235.005 35.8936 235.37 36.8276 235.698 37.9414Z" fill="white"/>
<path d="M243.247 40.2048V47.0308H247.624H252V45.953V44.9111L249.192 44.8033L246.347 44.6956L246.238 39.0192L246.128 33.3789H244.706H243.247V40.2048Z" fill="white"/>
<path d="M1.30438 34.6725C0.830266 35.1396 0.720856 36.2533 0.720856 41.247C0.720856 45.4144 0.866736 47.3904 1.1585 47.6778C1.45026 47.9652 3.49258 48.1089 7.90547 48.1089C13.7407 48.1089 14.2148 48.073 14.5795 47.4263C14.7983 47.0311 14.9442 44.2289 14.9442 40.9596C14.9442 33.6307 15.4183 34.0977 7.57724 34.0977C2.87259 34.0977 1.77849 34.2055 1.30438 34.6725Z" fill="white"/>
<path d="M18.5183 34.4928C17.9348 34.8162 17.8618 35.5347 17.8618 41.0314C17.8618 45.3784 18.0077 47.3903 18.2995 47.6777C18.9194 48.2884 30.6628 48.2884 31.2828 47.6777C31.5746 47.3903 31.7205 45.3784 31.7205 41.0314C31.7205 35.2832 31.684 34.8162 31.0275 34.4569C30.1158 33.9899 19.3571 33.9899 18.5183 34.4928Z" fill="white"/>
<path d="M35.4404 34.6725C34.6745 35.2114 34.6381 35.427 34.6381 41.247C34.6381 45.4144 34.7839 47.3904 35.0757 47.6778C35.3675 47.9652 37.4098 48.1089 41.8227 48.1089C47.6579 48.1089 48.132 48.073 48.4967 47.4263C48.7155 47.0311 48.8614 44.2289 48.8614 40.9596C48.8614 33.6666 49.299 34.0977 41.7497 34.0977C37.3733 34.0977 36.0969 34.2055 35.4404 34.6725Z" fill="white"/>
<path d="M1.1585 51.414C0.866736 51.7014 0.720856 53.6773 0.720856 57.8447C0.720856 62.8385 0.830266 63.9522 1.30438 64.4192C1.77849 64.8863 2.87259 64.994 7.57724 64.994C15.4183 64.994 14.9442 65.4611 14.9442 58.1322C14.9442 54.8629 14.7983 52.0606 14.5795 51.6655C14.2148 51.0188 13.7407 50.9829 7.90547 50.9829C3.49258 50.9829 1.45026 51.1266 1.1585 51.414Z" fill="white"/>
<path d="M18.2995 51.4141C18.0077 51.7015 17.8618 53.7134 17.8618 58.0604C17.8618 63.8086 17.8983 64.2756 18.5547 64.6349C18.9559 64.8145 21.6912 64.9941 24.7911 64.9941C27.8911 64.9941 30.6264 64.8145 31.0275 64.6349C31.684 64.2756 31.7205 63.8086 31.7205 58.0604C31.7205 53.7134 31.5746 51.7015 31.2828 51.4141C30.6628 50.8033 18.9194 50.8033 18.2995 51.4141Z" fill="white"/>
<path d="M90.8021 53.8924C90.3644 54.4672 90.1092 55.0779 90.2186 55.1857C90.4739 55.4372 92.6256 53.5331 92.6256 53.0661C92.6256 52.3835 91.5315 52.8505 90.8021 53.8924Z" fill="white"/>
<path d="M59.0731 58.8865C59.0731 63.4491 59.146 64.2754 59.6201 64.2754C60.0578 64.2754 60.1672 63.8084 60.1672 62.2995V60.3594L61.9907 60.108C64.6165 59.7487 65.6377 58.8865 65.6377 56.9105C65.6377 54.4676 64.1424 53.4976 60.2766 53.4976H59.0731V58.8865ZM63.1942 54.8987C64.2518 55.2939 64.726 56.3717 64.3977 57.6291C64.1789 58.4913 62.6107 59.2457 61.0425 59.2457C60.2037 59.2457 60.1672 59.138 60.1672 56.9105V54.5754H61.2248C61.8083 54.5754 62.7201 54.7191 63.1942 54.8987Z" fill="white"/>
<path d="M67.8988 54.1082C67.9718 54.4675 68.2635 54.7549 68.5553 54.7549C68.8471 54.7549 69.1388 54.4675 69.2118 54.1082C69.2847 53.6771 69.1024 53.4975 68.5553 53.4975C68.0082 53.4975 67.8259 53.6771 67.8988 54.1082Z" fill="white"/>
<path d="M68.1906 60.3235C68.1906 63.5928 68.3 64.2754 68.7377 64.2754C69.1753 64.2754 69.2847 63.5928 69.2847 60.3235C69.2847 57.0543 69.1753 56.3717 68.7377 56.3717C68.3 56.3717 68.1906 57.0543 68.1906 60.3235Z" fill="white"/>
<path d="M72.6035 56.695C71.6917 57.2698 72.4941 57.8087 73.6976 57.3776C75.1929 56.8746 76.5787 57.4853 76.5787 58.635C76.5787 59.4254 76.3599 59.5331 74.7187 59.7128C72.4211 60.0002 71.4729 60.7546 71.4729 62.3354C71.4729 64.3831 73.9529 65.3532 75.8493 64.0239C76.4693 63.5928 76.7611 63.5568 76.8705 63.8443C76.9434 64.0957 77.1622 64.2754 77.3446 64.2754C77.5269 64.2754 77.6728 62.7665 77.6728 60.8983C77.6728 56.8387 77.3811 56.3716 74.8282 56.3716C73.8799 56.3716 72.8952 56.5153 72.6035 56.695ZM76.5787 61.3294C76.5787 62.6587 75.4846 63.6287 74.1717 63.485C72.1658 63.2694 72.0564 61.1857 74.0623 60.6468C75.9952 60.1079 76.5787 60.2517 76.5787 61.3294Z" fill="white"/>
<path d="M80.5904 59.9285C80.5904 62.4433 80.7363 63.593 81.0645 63.8804C81.9763 64.5989 83.7633 64.7426 84.9304 64.1678C85.5504 63.8444 86.0609 63.7726 86.0609 63.9522C86.0609 64.1318 86.3162 64.2756 86.608 64.2756C87.0456 64.2756 87.155 63.593 87.155 60.3237C87.155 57.0544 87.0456 56.3718 86.608 56.3718C86.1704 56.3718 86.0609 56.9466 86.0609 59.2459C86.0609 62.4792 85.4409 63.557 83.581 63.557C81.9398 63.557 81.6845 62.9822 81.6845 59.5333C81.6845 56.9466 81.5751 56.3718 81.1375 56.3718C80.6998 56.3718 80.5904 57.0185 80.5904 59.9285Z" fill="white"/>
<path d="M90.0727 60.3235C90.0727 63.5928 90.1821 64.2754 90.6197 64.2754C91.0574 64.2754 91.1668 63.5928 91.1668 60.3235C91.1668 57.0543 91.0574 56.3717 90.6197 56.3717C90.1821 56.3717 90.0727 57.0543 90.0727 60.3235Z" fill="white"/>
</svg>